<mxfile host="app.diagrams.net" modified="2023-11-07T08:11:21.563Z" agent="Mozilla/5.0 (X11; Linux x86_64) AppleWebKit/537.36 (KHTML, like Gecko) Chrome/118.0.0.0 Safari/537.36" etag="ktQuNg7d5GcOZINbp8te" version="22.0.8" type="github">
  <diagram name="Страница — 1" id="V5Kmz2zpuxhNpEH5Pj94">
    <mxGraphModel dx="3354" dy="1798" grid="1" gridSize="10" guides="1" tooltips="1" connect="1" arrows="1" fold="1" page="1" pageScale="1" pageWidth="827" pageHeight="1169" math="0" shadow="0">
      <root>
        <mxCell id="0" />
        <mxCell id="1" parent="0" />
        <mxCell id="ekNTXzZ5v9rMjBOnmykI-16" style="edgeStyle=orthogonalEdgeStyle;rounded=0;orthogonalLoop=1;jettySize=auto;html=1;" parent="1" source="ekNTXzZ5v9rMjBOnmykI-1" target="ekNTXzZ5v9rMjBOnmykI-11" edge="1">
          <mxGeometry relative="1" as="geometry">
            <Array as="points">
              <mxPoint x="470" y="890" />
              <mxPoint x="354" y="890" />
            </Array>
          </mxGeometry>
        </mxCell>
        <mxCell id="ekNTXzZ5v9rMjBOnmykI-17" style="edgeStyle=orthogonalEdgeStyle;rounded=0;orthogonalLoop=1;jettySize=auto;html=1;entryX=0.5;entryY=1;entryDx=0;entryDy=0;entryPerimeter=0;" parent="1" source="ekNTXzZ5v9rMjBOnmykI-1" target="ekNTXzZ5v9rMjBOnmykI-6" edge="1">
          <mxGeometry relative="1" as="geometry">
            <mxPoint x="100" y="510" as="targetPoint" />
          </mxGeometry>
        </mxCell>
        <mxCell id="ekNTXzZ5v9rMjBOnmykI-31" style="edgeStyle=orthogonalEdgeStyle;rounded=0;orthogonalLoop=1;jettySize=auto;html=1;entryX=0.5;entryY=1;entryDx=0;entryDy=0;" parent="1" source="ekNTXzZ5v9rMjBOnmykI-1" target="ekNTXzZ5v9rMjBOnmykI-20" edge="1">
          <mxGeometry relative="1" as="geometry" />
        </mxCell>
        <mxCell id="ekNTXzZ5v9rMjBOnmykI-1" value="format4-fch-loader" style="shape=parallelogram;perimeter=parallelogramPerimeter;whiteSpace=wrap;html=1;fixedSize=1;" parent="1" vertex="1">
          <mxGeometry x="380" y="690" width="180" height="100" as="geometry" />
        </mxCell>
        <mxCell id="ekNTXzZ5v9rMjBOnmykI-14" style="edgeStyle=orthogonalEdgeStyle;rounded=0;orthogonalLoop=1;jettySize=auto;html=1;" parent="1" source="ekNTXzZ5v9rMjBOnmykI-2" target="ekNTXzZ5v9rMjBOnmykI-11" edge="1">
          <mxGeometry relative="1" as="geometry" />
        </mxCell>
        <mxCell id="ekNTXzZ5v9rMjBOnmykI-28" style="edgeStyle=orthogonalEdgeStyle;rounded=0;orthogonalLoop=1;jettySize=auto;html=1;" parent="1" source="ekNTXzZ5v9rMjBOnmykI-2" target="ekNTXzZ5v9rMjBOnmykI-27" edge="1">
          <mxGeometry relative="1" as="geometry" />
        </mxCell>
        <mxCell id="ekNTXzZ5v9rMjBOnmykI-2" value="format4-fch-parser" style="shape=parallelogram;perimeter=parallelogramPerimeter;whiteSpace=wrap;html=1;fixedSize=1;" parent="1" vertex="1">
          <mxGeometry x="20" y="840" width="180" height="100" as="geometry" />
        </mxCell>
        <mxCell id="ekNTXzZ5v9rMjBOnmykI-15" style="edgeStyle=orthogonalEdgeStyle;rounded=0;orthogonalLoop=1;jettySize=auto;html=1;" parent="1" source="ekNTXzZ5v9rMjBOnmykI-3" target="ekNTXzZ5v9rMjBOnmykI-11" edge="1">
          <mxGeometry relative="1" as="geometry">
            <Array as="points">
              <mxPoint x="550" y="900" />
              <mxPoint x="550" y="1010" />
            </Array>
          </mxGeometry>
        </mxCell>
        <mxCell id="ekNTXzZ5v9rMjBOnmykI-30" style="edgeStyle=orthogonalEdgeStyle;rounded=0;orthogonalLoop=1;jettySize=auto;html=1;exitX=0.5;exitY=1;exitDx=0;exitDy=0;" parent="1" source="ekNTXzZ5v9rMjBOnmykI-3" target="ekNTXzZ5v9rMjBOnmykI-29" edge="1">
          <mxGeometry relative="1" as="geometry" />
        </mxCell>
        <mxCell id="ekNTXzZ5v9rMjBOnmykI-3" value="format4-fch-logger" style="shape=parallelogram;perimeter=parallelogramPerimeter;whiteSpace=wrap;html=1;fixedSize=1;" parent="1" vertex="1">
          <mxGeometry x="580" y="850" width="180" height="100" as="geometry" />
        </mxCell>
        <mxCell id="ekNTXzZ5v9rMjBOnmykI-6" value="pgRequests" style="shape=cylinder3;whiteSpace=wrap;html=1;boundedLbl=1;backgroundOutline=1;size=15;" parent="1" vertex="1">
          <mxGeometry x="50" y="420" width="80" height="100" as="geometry" />
        </mxCell>
        <mxCell id="ekNTXzZ5v9rMjBOnmykI-7" value="mysql" style="shape=cylinder3;whiteSpace=wrap;html=1;boundedLbl=1;backgroundOutline=1;size=15;" parent="1" vertex="1">
          <mxGeometry x="170" y="417.5" width="80" height="100" as="geometry" />
        </mxCell>
        <mxCell id="ekNTXzZ5v9rMjBOnmykI-8" value="queue" style="shape=cylinder3;whiteSpace=wrap;html=1;boundedLbl=1;backgroundOutline=1;size=15;" parent="1" vertex="1">
          <mxGeometry x="294" y="417.5" width="86" height="95" as="geometry" />
        </mxCell>
        <mxCell id="ekNTXzZ5v9rMjBOnmykI-9" value="pg&lt;br&gt;shard1" style="shape=cylinder3;whiteSpace=wrap;html=1;boundedLbl=1;backgroundOutline=1;size=15;" parent="1" vertex="1">
          <mxGeometry x="560" y="410" width="80" height="100" as="geometry" />
        </mxCell>
        <mxCell id="ekNTXzZ5v9rMjBOnmykI-11" value="fch-queue" style="shape=cylinder3;whiteSpace=wrap;html=1;boundedLbl=1;backgroundOutline=1;size=15;" parent="1" vertex="1">
          <mxGeometry x="294" y="950" width="120" height="120" as="geometry" />
        </mxCell>
        <mxCell id="ekNTXzZ5v9rMjBOnmykI-18" style="edgeStyle=orthogonalEdgeStyle;rounded=0;orthogonalLoop=1;jettySize=auto;html=1;entryX=0.5;entryY=1;entryDx=0;entryDy=0;entryPerimeter=0;" parent="1" source="ekNTXzZ5v9rMjBOnmykI-1" target="ekNTXzZ5v9rMjBOnmykI-7" edge="1">
          <mxGeometry relative="1" as="geometry" />
        </mxCell>
        <mxCell id="ekNTXzZ5v9rMjBOnmykI-22" style="edgeStyle=orthogonalEdgeStyle;rounded=0;orthogonalLoop=1;jettySize=auto;html=1;" parent="1" source="ekNTXzZ5v9rMjBOnmykI-20" target="ekNTXzZ5v9rMjBOnmykI-9" edge="1">
          <mxGeometry relative="1" as="geometry" />
        </mxCell>
        <mxCell id="ekNTXzZ5v9rMjBOnmykI-20" value="total-connector" style="shape=parallelogram;perimeter=parallelogramPerimeter;whiteSpace=wrap;html=1;fixedSize=1;" parent="1" vertex="1">
          <mxGeometry x="610" y="585" width="120" height="60" as="geometry" />
        </mxCell>
        <mxCell id="ekNTXzZ5v9rMjBOnmykI-24" style="edgeStyle=orthogonalEdgeStyle;rounded=0;orthogonalLoop=1;jettySize=auto;html=1;entryX=0.5;entryY=1;entryDx=0;entryDy=0;entryPerimeter=0;" parent="1" source="ekNTXzZ5v9rMjBOnmykI-1" target="ekNTXzZ5v9rMjBOnmykI-8" edge="1">
          <mxGeometry relative="1" as="geometry">
            <Array as="points">
              <mxPoint x="337" y="740" />
            </Array>
          </mxGeometry>
        </mxCell>
        <mxCell id="ekNTXzZ5v9rMjBOnmykI-25" value="pg&lt;br&gt;shard2" style="shape=cylinder3;whiteSpace=wrap;html=1;boundedLbl=1;backgroundOutline=1;size=15;" parent="1" vertex="1">
          <mxGeometry x="710" y="410" width="80" height="100" as="geometry" />
        </mxCell>
        <mxCell id="ekNTXzZ5v9rMjBOnmykI-26" style="edgeStyle=orthogonalEdgeStyle;rounded=0;orthogonalLoop=1;jettySize=auto;html=1;entryX=0.5;entryY=1;entryDx=0;entryDy=0;entryPerimeter=0;" parent="1" source="ekNTXzZ5v9rMjBOnmykI-20" target="ekNTXzZ5v9rMjBOnmykI-25" edge="1">
          <mxGeometry relative="1" as="geometry" />
        </mxCell>
        <mxCell id="ekNTXzZ5v9rMjBOnmykI-27" value="volume for farse" style="rounded=1;whiteSpace=wrap;html=1;" parent="1" vertex="1">
          <mxGeometry x="50" y="1020" width="120" height="60" as="geometry" />
        </mxCell>
        <mxCell id="ekNTXzZ5v9rMjBOnmykI-29" value="volume for logs" style="rounded=1;whiteSpace=wrap;html=1;" parent="1" vertex="1">
          <mxGeometry x="610" y="1020" width="120" height="60" as="geometry" />
        </mxCell>
      </root>
    </mxGraphModel>
  </diagram>
</mxfile>
